<svg width="135" height="40" viewBox="0 0 135 40" fill="none" xmlns="http://www.w3.org/2000/svg">
<g clip-path="url(#clip0)">
<path d="M9.35899 6.98926C9.35899 8.61621 8.95111 9.88086 8.13535 10.7832C7.32416 11.6855 6.17344 12.1367 4.6832 12.1367C3.17474 12.1367 2.01491 11.6901 1.20371 10.7969C0.397072 9.89909 -0.00624847 8.62533 -0.00624847 6.97559C-0.00624847 5.32585 0.39935 4.05892 1.21055 3.1748C2.0263 2.29069 3.18841 1.84863 4.69688 1.84863C6.18255 1.84863 7.33099 2.29753 8.14219 3.19531C8.95339 4.0931 9.35899 5.35775 9.35899 6.98926ZM1.73008 6.98926C1.73008 8.21973 1.97845 9.15397 2.4752 9.79199C2.97194 10.4255 3.70794 10.7422 4.6832 10.7422C5.65391 10.7422 6.38535 10.4277 6.87754 9.79883C7.37429 9.16992 7.62266 8.2334 7.62266 6.98926C7.62266 5.76335 7.37656 4.83366 6.88438 4.2002C6.39675 3.56673 5.66758 3.25 4.69688 3.25C3.71706 3.25 2.9765 3.56673 2.4752 4.2002C1.97845 4.83366 1.73008 5.76335 1.73008 6.98926ZM17.1574 3.26367C16.2186 3.26367 15.4803 3.59635 14.9426 4.26172C14.4048 4.92708 14.1359 5.84538 14.1359 7.0166C14.1359 8.24251 14.3934 9.16992 14.9084 9.79883C15.4279 10.4277 16.1776 10.7422 17.1574 10.7422C17.5813 10.7422 17.9914 10.7012 18.3879 10.6191C18.7844 10.5326 19.1968 10.4232 19.6252 10.291V11.6924C18.8413 11.9886 17.9527 12.1367 16.9592 12.1367C15.4963 12.1367 14.3729 11.6947 13.5891 10.8105C12.8052 9.92188 12.4133 8.65267 12.4133 7.00293C12.4133 5.96387 12.6024 5.05469 12.9807 4.27539C13.3635 3.49609 13.9149 2.89909 14.635 2.48438C15.355 2.06966 16.2004 1.8623 17.1711 1.8623C18.1919 1.8623 19.1353 2.0765 20.0012 2.50488L19.4133 3.86523C19.076 3.70573 18.7183 3.56673 18.34 3.44824C17.9663 3.3252 17.5721 3.26367 17.1574 3.26367ZM27.4305 3.26367C26.4917 3.26367 25.7534 3.59635 25.2156 4.26172C24.6779 4.92708 24.409 5.84538 24.409 7.0166C24.409 8.24251 24.6665 9.16992 25.1814 9.79883C25.701 10.4277 26.4507 10.7422 27.4305 10.7422C27.8543 10.7422 28.2645 10.7012 28.6609 10.6191C29.0574 10.5326 29.4699 10.4232 29.8982 10.291V11.6924C29.1144 11.9886 28.2257 12.1367 27.2322 12.1367C25.7693 12.1367 24.646 11.6947 23.8621 10.8105C23.0783 9.92188 22.6863 8.65267 22.6863 7.00293C22.6863 5.96387 22.8755 5.05469 23.2537 4.27539C23.6365 3.49609 24.188 2.89909 24.908 2.48438C25.6281 2.06966 26.4734 1.8623 27.4441 1.8623C28.465 1.8623 29.4083 2.0765 30.2742 2.50488L29.6863 3.86523C29.3491 3.70573 28.9913 3.56673 28.6131 3.44824C28.2394 3.3252 27.8452 3.26367 27.4305 3.26367ZM39.6518 12L38.6537 9.22461H34.8324L33.8549 12H32.1322L35.8715 1.96484H37.6488L41.3881 12H39.6518ZM38.223 7.81641L37.2865 5.0957C37.2182 4.91341 37.1225 4.6263 36.9994 4.23438C36.8809 3.84245 36.7989 3.55534 36.7533 3.37305C36.6303 3.93359 36.4503 4.54655 36.2133 5.21191L35.3109 7.81641H38.223ZM53.3961 3.26367C52.4573 3.26367 51.719 3.59635 51.1813 4.26172C50.6435 4.92708 50.3746 5.84538 50.3746 7.0166C50.3746 8.24251 50.6321 9.16992 51.1471 9.79883C51.6666 10.4277 52.4163 10.7422 53.3961 10.7422C53.8199 10.7422 54.2301 10.7012 54.6266 10.6191C55.023 10.5326 55.4355 10.4232 55.8639 10.291V11.6924C55.08 11.9886 54.1913 12.1367 53.1979 12.1367C51.735 12.1367 50.6116 11.6947 49.8277 10.8105C49.0439 9.92188 48.652 8.65267 48.652 7.00293C48.652 5.96387 48.8411 5.05469 49.2193 4.27539C49.6021 3.49609 50.1536 2.89909 50.8736 2.48438C51.5937 2.06966 52.4391 1.8623 53.4098 1.8623C54.4306 1.8623 55.374 2.0765 56.2398 2.50488L55.652 3.86523C55.3147 3.70573 54.957 3.56673 54.5787 3.44824C54.205 3.3252 53.8108 3.26367 53.3961 3.26367ZM67.2512 2.00586V8.47266C67.2512 9.21094 67.0917 9.85807 66.7727 10.4141C66.4582 10.9655 66.0002 11.3916 65.3986 11.6924C64.8016 11.9886 64.0861 12.1367 63.2522 12.1367C62.0126 12.1367 61.0487 11.8086 60.3605 11.1523C59.6724 10.4961 59.3283 9.59375 59.3283 8.44531V2.00586H60.9689V8.3291C60.9689 9.15397 61.1604 9.76237 61.5432 10.1543C61.926 10.5462 62.5139 10.7422 63.3068 10.7422C64.8472 10.7422 65.6174 9.93327 65.6174 8.31543V2.00586H67.2512ZM77.825 5.02734C77.825 6.07096 77.4832 6.87077 76.7996 7.42676C76.116 7.98275 75.143 8.26074 73.8807 8.26074H72.8416V12H71.2078V2.00586H74.0857C75.3344 2.00586 76.2687 2.26107 76.8885 2.77148C77.5128 3.2819 77.825 4.03385 77.825 5.02734ZM72.8416 6.88672H73.7098C74.5483 6.88672 75.1635 6.74089 75.5555 6.44922C75.9474 6.15755 76.1434 5.70182 76.1434 5.08203C76.1434 4.50781 75.9679 4.07943 75.617 3.79688C75.2661 3.51432 74.7192 3.37305 73.9764 3.37305H72.8416V6.88672ZM81.2211 12V2.00586H82.8549V12H81.2211ZM95.0283 6.90723C95.0283 8.55697 94.5703 9.81934 93.6543 10.6943C92.7383 11.5648 91.4189 12 89.6963 12H86.9004V2.00586H89.9902C91.5807 2.00586 92.818 2.43424 93.7021 3.29102C94.5863 4.14779 95.0283 5.35319 95.0283 6.90723ZM93.3057 6.96191C93.3057 4.56934 92.1868 3.37305 89.9492 3.37305H88.5342V10.626H89.6963C92.1025 10.626 93.3057 9.40462 93.3057 6.96191ZM104.782 12L103.784 9.22461H99.9625L98.985 12H97.2623L101.002 1.96484H102.779L106.518 12H104.782ZM103.353 7.81641L102.417 5.0957C102.348 4.91341 102.253 4.6263 102.129 4.23438C102.011 3.84245 101.929 3.55534 101.883 3.37305C101.76 3.93359 101.58 4.54655 101.343 5.21191L100.441 7.81641H103.353ZM112.69 12H111.056V3.40723H108.116V2.00586H115.629V3.40723H112.69V12ZM124.767 12L123.769 9.22461H119.948L118.971 12H117.248L120.987 1.96484H122.764L126.504 12H124.767ZM123.339 7.81641L122.402 5.0957C122.334 4.91341 122.238 4.6263 122.115 4.23438C121.997 3.84245 121.915 3.55534 121.869 3.37305C121.746 3.93359 121.566 4.54655 121.329 5.21191L120.427 7.81641H123.339ZM132.675 12H131.041V3.40723H128.102V2.00586H135.615V3.40723H132.675V12Z" fill="white"/>
<path d="M51.7168 32.6348C51.7168 34.0723 51.3398 35.1602 50.5859 35.8984C49.832 36.6328 48.7246 37 47.2637 37H45.2129V28.4336H47.5273C48.8945 28.4336 49.9336 28.791 50.6445 29.5059C51.3594 30.2207 51.7168 31.2637 51.7168 32.6348ZM51.0664 32.6582C51.0664 31.4316 50.7539 30.5098 50.1289 29.8926C49.5078 29.2715 48.5938 28.9609 47.3867 28.9609H45.8105V36.4727H47.2285C49.7871 36.4727 51.0664 35.2012 51.0664 32.6582ZM59.3672 37H54.6855V28.4336H59.3672V28.9844H55.2832V32.2246H59.1387V32.7754H55.2832V36.4492H59.3672V37ZM67.0352 34.791C67.0352 35.5059 66.7715 36.0723 66.2441 36.4902C65.7207 36.9082 65.0234 37.1172 64.1523 37.1172C63.1055 37.1172 62.3027 37.002 61.7441 36.7715V36.1738C62.3613 36.4355 63.1484 36.5664 64.1055 36.5664C64.8086 36.5664 65.3652 36.4062 65.7754 36.0859C66.1895 35.7617 66.3965 35.3379 66.3965 34.8145C66.3965 34.4902 66.3281 34.2227 66.1914 34.0117C66.0547 33.7969 65.832 33.6016 65.5234 33.4258C65.2148 33.25 64.7617 33.0605 64.1641 32.8574C63.2891 32.5566 62.6836 32.2324 62.3477 31.8848C62.0156 31.5332 61.8496 31.0664 61.8496 30.4844C61.8496 29.8438 62.0996 29.3223 62.5996 28.9199C63.1035 28.5137 63.75 28.3105 64.5391 28.3105C65.3438 28.3105 66.0996 28.4629 66.8066 28.7676L66.5898 29.2832C65.8789 28.9863 65.1992 28.8379 64.5508 28.8379C63.918 28.8379 63.4141 28.9844 63.0391 29.2773C62.6641 29.5703 62.4766 29.9688 62.4766 30.4727C62.4766 30.7891 62.5332 31.0488 62.6465 31.252C62.7637 31.4551 62.9531 31.6387 63.2148 31.8027C63.4766 31.9629 63.9258 32.1562 64.5625 32.3828C65.2305 32.6133 65.7324 32.8379 66.0684 33.0566C66.4043 33.2715 66.6484 33.5176 66.8008 33.7949C66.957 34.0684 67.0352 34.4004 67.0352 34.791ZM69.8457 37V28.4336H70.4434V37H69.8457ZM77.2383 32.6816H80.3965V36.5898C79.5684 36.9414 78.6367 37.1172 77.6016 37.1172C76.25 37.1172 75.2129 36.7363 74.4902 35.9746C73.7715 35.209 73.4121 34.127 73.4121 32.7285C73.4121 31.8574 73.5898 31.0859 73.9453 30.4141C74.3047 29.7383 74.8164 29.2168 75.4805 28.8496C76.1484 28.4824 76.9141 28.2988 77.7773 28.2988C78.7109 28.2988 79.5488 28.4707 80.291 28.8145L80.0508 29.3535C79.3086 29.0098 78.5391 28.8379 77.7422 28.8379C76.6133 28.8379 75.7168 29.1875 75.0527 29.8867C74.3926 30.582 74.0625 31.5215 74.0625 32.7051C74.0625 33.9941 74.377 34.9648 75.0059 35.6172C75.6348 36.2656 76.5586 36.5898 77.7773 36.5898C78.5664 36.5898 79.2363 36.4785 79.7871 36.2559V33.2441H77.2383V32.6816ZM89.7812 37H89.1777L84.1035 29.3945H84.0566C84.1035 30.3008 84.127 30.9844 84.127 31.4453V37H83.5527V28.4336H84.1504L89.2188 36.0273H89.2539C89.2188 35.3242 89.2012 34.6562 89.2012 34.0234V28.4336H89.7812V37Z" fill="white"/>
</g>
<defs>
<clipPath id="clip0">
<rect width="135" height="40" fill="white"/>
</clipPath>
</defs>
</svg>
